<?xml version="1.0" encoding="UTF-8"?>
<svg viewBox="0 0 588.66876 677.62628" xmlns="http://www.w3.org/2000/svg">
 <path d="m164.99 341.87c0.01447 11.279 2.894 22.235 5.2926 33.171 8.1633 34.884 20.68 68.418 34.081 101.57 12.731 30.256 25.52 60.58 46.503 85.836 31.231-44.403-199.26 147.06-144.56 68.279 11.929-20.732 25.099-40.683 37.88-60.89 38.506-62.078 78.466-123.23 117.94-184.69 61.129-93.891 121.79-188.24 170.95-289.05l13.692-31.971 141.9-64.114-20.468 35.481c-57.621 97.401-117.91 193.2-174.39 291.28-31.315 56.625-62.007 113.61-90.06 171.94-9.8736 19.449-20.596 38.36-31.066 57.472-27.236 62.987-141.39 169.08-179.23 97.632-10.714-32.025-21.542-64.092-36.061-94.648-14.739-32.38-30.372-64.336-45.416-96.575-5.0067-10.729-8.5239-21.88-11.983-33.188l164.99-87.526z" fill="#007fff" opacity=".85987"/>
</svg>
